HIERARCHY
ROOT hip
{
  OFFSET 0 0 0
  CHANNELS 6 Xposition Yposition Zposition Zrotation Yrotation Xrotation
  JOINT abdomen
  {
    OFFSET 0 20.6881 -0.73152
    CHANNELS 3 Zrotation Xrotation Yrotation
    JOINT chest
    {
      OFFSET 0 11.7043 -0.48768
      CHANNELS 3 Zrotation Xrotation Yrotation
      JOINT neck
      {
        OFFSET 0 22.1894 -2.19456
        CHANNELS 3 Zrotation Xrotation Yrotation
        JOINT head
        {
          OFFSET -0.24384 7.07133 1.2192
          CHANNELS 3 Zrotation Xrotation Yrotation
          JOINT leftEye
          {
            OFFSET 4.14528 8.04674 8.04672
            CHANNELS 3 Zrotation Xrotation Yrotation
            End Site
            {
              OFFSET 1 0 0
            }
          }
          JOINT rightEye
          {
            OFFSET -3.6576 8.04674 8.04672
            CHANNELS 3 Zrotation Xrotation Yrotation
            End Site
            {
              OFFSET 1 0 0
            }
          }
        }
      }
      JOINT rCollar
      {
        OFFSET -2.68224 19.2634 -4.8768
        CHANNELS 3 Zrotation Xrotation Yrotation
        JOINT rShldr
        {
          OFFSET -8.77824 -1.95073 1.46304
          CHANNELS 3 Zrotation Xrotation Yrotation
          JOINT rForeArm
          {
            OFFSET -28.1742 -1.7115 0.48768
            CHANNELS 3 Zrotation Xrotation Yrotation
            JOINT rHand
            {
              OFFSET -22.5879 0.773209 7.07136
              CHANNELS 3 Zrotation Xrotation Yrotation
              JOINT rThumb1
              {
                OFFSET -1.2192 -0.487915 3.41376
                CHANNELS 3 Zrotation Xrotation Yrotation
                JOINT rThumb2
                {
                  OFFSET -3.37035 -0.52449 3.41376
                  CHANNELS 3 Zrotation Xrotation Yrotation
                  End Site
                  {
                    OFFSET -1.78271 -1.18214 1.43049
                  }
                }
              }
              JOINT rIndex1
              {
                OFFSET -7.75947 0.938293 5.60832
                CHANNELS 3 Zrotation Xrotation Yrotation
                JOINT rIndex2
                {
                  OFFSET -2.54057 -0.884171 1.56538
                  CHANNELS 3 Zrotation Xrotation Yrotation
                  End Site
                  {
                    OFFSET -1.62519 -0.234802 1.16502
                  }
                }
              }
              JOINT rMid1
              {
                OFFSET -8.24714 1.18213 3.41376
                CHANNELS 3 Zrotation Xrotation Yrotation
                JOINT rMid2
                {
                  OFFSET -3.10165 -0.590103 1.0647
                  CHANNELS 3 Zrotation Xrotation Yrotation
                  End Site
                  {
                    OFFSET -2.48547 -0.328903 0.83742
                  }
                }
              }
              JOINT rRing1
              {
                OFFSET -8.82822 0.546677 1.51678
                CHANNELS 3 Zrotation Xrotation Yrotation
                JOINT rRing2
                {
                  OFFSET -2.60934 -0.819778 -0.0198488
                  CHANNELS 3 Zrotation Xrotation Yrotation
                  End Site
                  {
                    OFFSET -2.33842 -0.294052 0.168128
                  }
                }
              }
              JOINT rPinky1
              {
                OFFSET -8.27202 -0.0477905 -0.4584
                CHANNELS 3 Zrotation Xrotation Yrotation
                JOINT rPinky2
                {
                  OFFSET -1.82734 -0.647385 -0.700984
                  CHANNELS 3 Zrotation Xrotation Yrotation
                  End Site
                  {
                    OFFSET -1.69225 -0.51767 -0.607171
                  }
                }
              }
            }
          }
        }
      }
      JOINT lCollar
      {
        OFFSET 2.68224 19.2634 -4.8768
        CHANNELS 3 Zrotation Xrotation Yrotation
        JOINT lShldr
        {
          OFFSET 8.77824 -1.95073 1.46304
          CHANNELS 3 Zrotation Xrotation Yrotation
          JOINT lForeArm
          {
            OFFSET 28.1742 -1.7115 0.48768
            CHANNELS 3 Zrotation Xrotation Yrotation
            JOINT lHand
            {
              OFFSET 22.5879 0.773209 7.07136
              CHANNELS 3 Zrotation Xrotation Yrotation
              JOINT lThumb1
              {
                OFFSET 1.2192 -0.487915 3.41376
                CHANNELS 3 Zrotation Xrotation Yrotation
                JOINT lThumb2
                {
                  OFFSET 3.37035 -0.52449 3.41376
                  CHANNELS 3 Zrotation Xrotation Yrotation
                  End Site
                  {
                    OFFSET 1.78271 -1.18214 1.43049
                  }
                }
              }
              JOINT lIndex1
              {
                OFFSET 7.75947 0.938293 5.60832
                CHANNELS 3 Zrotation Xrotation Yrotation
                JOINT lIndex2
                {
                  OFFSET 2.54057 -0.884171 1.56538
                  CHANNELS 3 Zrotation Xrotation Yrotation
                  End Site
                  {
                    OFFSET 1.62519 -0.234802 1.16502
                  }
                }
              }
              JOINT lMid1
              {
                OFFSET 8.24714 1.18213 3.41376
                CHANNELS 3 Zrotation Xrotation Yrotation
                JOINT lMid2
                {
                  OFFSET 3.10165 -0.590103 1.0647
                  CHANNELS 3 Zrotation Xrotation Yrotation
                  End Site
                  {
                    OFFSET 2.48547 -0.328903 0.83742
                  }
                }
              }
              JOINT lRing1
              {
                OFFSET 8.82822 0.546677 1.51678
                CHANNELS 3 Zrotation Xrotation Yrotation
                JOINT lRing2
                {
                  OFFSET 2.60934 -0.819778 -0.0198488
                  CHANNELS 3 Zrotation Xrotation Yrotation
                  End Site
                  {
                    OFFSET 2.33842 -0.294052 0.168128
                  }
                }
              }
              JOINT lPinky1
              {
                OFFSET 8.27202 -0.0477905 -0.4584
                CHANNELS 3 Zrotation Xrotation Yrotation
                JOINT lPinky2
                {
                  OFFSET 1.82734 -0.647385 -0.700984
                  CHANNELS 3 Zrotation Xrotation Yrotation
                  End Site
                  {
                    OFFSET 1.69225 -0.51767 -0.607171
                  }
                }
              }
            }
          }
        }
      }
    }
  }
  JOINT rButtock
  {
    OFFSET -8.77824 4.35084 1.2192
    CHANNELS 3 Zrotation Xrotation Yrotation
    JOINT rThigh
    {
      OFFSET 0 -1.70687 -2.19456
      CHANNELS 3 Zrotation Xrotation Yrotation
      JOINT rShin
      {
        OFFSET 0 -36.8199 0.73152
        CHANNELS 3 Zrotation Xrotation Yrotation
        JOINT rFoot
        {
          OFFSET 0.73152 -45.1104 -5.12064
          CHANNELS 3 Zrotation Xrotation Yrotation
          End Site
          {
            OFFSET -1.1221 -3.69964 12.103
          }
        }
      }
    }
  }
  JOINT lButtock
  {
    OFFSET 8.77824 4.35084 1.2192
    CHANNELS 3 Zrotation Xrotation Yrotation
    JOINT lThigh
    {
      OFFSET 0 -1.70687 -2.19456
      CHANNELS 3 Zrotation Xrotation Yrotation
      JOINT lShin
      {
        OFFSET 0 -36.8199 0.73152
        CHANNELS 3 Zrotation Xrotation Yrotation
        JOINT lFoot
        {
          OFFSET -0.73152 -45.1104 -5.12064
          CHANNELS 3 Zrotation Xrotation Yrotation
          End Site
          {
            OFFSET 1.1221 -3.69964 12.103
          }
        }
      }
    }
  }
}
MOTION
Frames:	4
Frame Time:	0.03333
-0.0710100074102229 55.51729965209961 1.3180000149877742 9.397799894213676 31.75700068473816 7.885200306773186 -16.09169974923134 12.184500396251678 2.9440100491046906 4.923670068383217 -9.036120101809502 0.8336739800870419 -8.952089846134186 18.391299694776535 -12.435500174760818 10.544599816203117 -29.24970120191574 -22.174399942159653 0.0 0.0 0.0 0.0 0.0 0.0 0.0 0.0 0.0 33.05579870939255 16.67900025844574 39.79359894990921 -13.533699810504913 -6.584159955382347 24.620500802993774 -0.4400539817288518 18.520399779081345 2.698490023612976 -3.3227820495085325e-09 4.501998773775995e-10 -3.2230218494078144e-09 -5.786731094303832e-09 4.808953235624358e-10 -5.520064405573066e-09 -3.3227820495085325e-09 4.501998773775995e-10 -3.2230218494078144e-09 7.7309102565050125 5.474880114197731 0.41731400415301323 -3.3227820495085325e-09 4.501998773775995e-10 -3.2230218494078144e-09 2.905540131032467 0.9651830233633518 0.102901995414868 -3.3227820495085325e-09 4.501998773775995e-10 -3.2230218494078144e-09 10.27859978377819 0.7318009994924068 0.025912300043273717 -3.3227820495085325e-09 4.501998773775995e-10 -3.2230218494078144e-09 2.221670038998127 -0.733487019315362 -0.2089200052432716 0.0 0.0 0.0 -112.20699548721313 49.853602051734924 50.728501081466675 28.02410066127777 -40.28519958257675 -84.43489909172058 3.7676899507641792 -46.96759879589081 8.658320233225822 -2.7139890335092787e-09 -2.6065549718623515e-09 -9.106315701501444e-10 -4.647162654691783e-09 -4.2589931581460405e-09 -1.6729018170735799e-09 -2.7139890335092787e-09 -2.6065549718623515e-09 -9.106315701501444e-10 -7.7309102565050125 5.474880114197731 -0.41731400415301323 -2.7139890335092787e-09 -2.6065549718623515e-09 -9.106315701501444e-10 -2.905540131032467 0.9651830233633518 -0.102901995414868 -2.7139890335092787e-09 -2.6065549718623515e-09 -9.106315701501444e-10 -10.27859978377819 0.7318009994924068 -0.025912300043273717 -2.7139890335092787e-09 -2.6065549718623515e-09 -9.106315701501444e-10 -2.221670038998127 -0.733487019315362 0.2089200052432716 0.0 0.0 0.0 -61.25369846820831 -54.21119928359985 -52.998899817466736 -2.0243300311267376 70.00289797782898 2.5784799456596375 1.7377299629151821 -1.104239970445633 11.802599430084229 0.0 0.0 0.0 15.693399757146835 11.218799874186516 1.4869100600481033 -0.15821000444702804 29.185100197792053 -2.5108700059354305 4.401990137994289 -12.317799478769302 30.104499757289886
-0.12689000636237324 55.43989944458008 0.9490000271471217 9.206200316548347 31.970399916172028 7.896499782800674 -15.662000477313995 12.363199889659882 2.7781799621880054 4.8595599085092545 -9.1133301705122 0.8039390109479427 -8.88595998287201 18.434099704027176 -12.441799342632294 10.582300275564194 -29.620401263237 -22.16559961438179 0.0 0.0 0.0 0.0 0.0 0.0 0.0 0.0 0.0 32.77430087327957 16.608699560165405 39.87129986286163 -13.549299538135529 -6.596380099654198 24.651499092578888 -0.4352420149371028 18.42340037226677 2.6833100616931915 -5.699760663446796e-09 6.676259545201901e-10 -5.4433257901109755e-09 -9.923901700403803e-09 6.650680006714538e-10 -9.321183824795298e-09 -5.699760663446796e-09 6.676259545201901e-10 -5.4433257901109755e-09 7.7309102565050125 5.474880114197731 0.41731400415301323 -5.699760663446796e-09 6.676259545201901e-10 -5.4433257901109755e-09 2.905540131032467 0.9651830233633518 0.102901995414868 -5.699760663446796e-09 6.676259545201901e-10 -5.4433257901109755e-09 10.27859978377819 0.7318009994924068 0.025912300043273717 -5.699760663446796e-09 6.676259545201901e-10 -5.4433257901109755e-09 2.221670038998127 -0.733487019315362 -0.2089200052432716 0.0 0.0 0.0 -112.25100517272949 50.11370122432709 50.8150988817215 28.02489995956421 -40.28059959411621 -84.42690074443817 3.7294000759720802 -46.79549753665924 8.605899810791016 -4.617746185431315e-09 -4.458513558347477e-09 -1.56035184772918e-09 -7.91750665030122e-09 -7.338769592024619e-09 -2.8342128643998876e-09 -4.617746185431315e-09 -4.458513558347477e-09 -1.56035184772918e-09 -7.7309102565050125 5.474880114197731 -0.41731400415301323 -4.617746185431315e-09 -4.458513558347477e-09 -1.56035184772918e-09 -2.905540131032467 0.9651830233633518 -0.102901995414868 -4.617746185431315e-09 -4.458513558347477e-09 -1.56035184772918e-09 -10.27859978377819 0.7318009994924068 -0.025912300043273717 -4.617746185431315e-09 -4.458513558347477e-09 -1.56035184772918e-09 -2.221670038998127 -0.733487019315362 0.2089200052432716 0.0 0.0 0.0 -61.184202432632446 -54.47030067443848 -53.04000198841095 -2.0189500227570534 69.9802976846695 2.5737000815570354 1.6454500705003738 -0.8246070239692926 11.150799840688705 0.0 0.0 0.0 16.06010064482689 9.89320993423462 1.4466499350965023 -0.13848299626260996 31.099500060081482 -2.5772300362586975 4.676900133490562 -12.707100659608841 30.11080026626587
-0.2006000083674735 55.328800201416016 0.4780000412138179 8.956500068306923 32.28239983320236 7.891999706625938 -15.080700069665909 12.608800381422043 2.530920021235943 4.775560162961483 -9.158870056271553 0.7546349801123142 -8.805910125374794 18.52580040693283 -12.452100366353989 10.679700002074242 -30.22530108690262 -22.14390054345131 0.0 0.0 0.0 0.0 0.0 0.0 0.0 0.0 0.0 32.39139944314957 16.482399702072144 39.97020095586777 -13.59390065073967 -6.631449982523918 24.740500152111053 -0.42936600744724274 18.30409973859787 2.664679940789938 -4.877698245309148e-09 1.5296564015443437e-09 -4.993125912733376e-09 -8.496883197040006e-09 2.220303940703161e-09 -8.558913577871863e-09 -4.877698245309148e-09 1.5296564015443437e-09 -4.993125912733376e-09 7.7309102565050125 5.474880114197731 0.41731400415301323 -4.877698245309148e-09 1.5296564015443437e-09 -4.993125912733376e-09 2.905540131032467 0.9651830233633518 0.102901995414868 -4.877698245309148e-09 1.5296564015443437e-09 -4.993125912733376e-09 10.27859978377819 0.7318009994924068 0.025912300043273717 -4.877698245309148e-09 1.5296564015443437e-09 -4.993125912733376e-09 2.221670038998127 -0.733487019315362 -0.2089200052432716 0.0 0.0 0.0 -112.28000521659851 50.457597970962524 50.89399874210358 28.025801181793213 -40.27580112218857 -84.4180977344513 3.6560500413179398 -46.46119773387909 8.505070209503174 -4.0316550098395965e-09 -3.903437573171686e-09 -1.4478018783847801e-09 -6.912550531978923e-09 -6.4358118834206834e-09 -2.6193447411060333e-09 -4.0316550098395965e-09 -3.903437573171686e-09 -1.4478018783847801e-09 -7.7309102565050125 5.474880114197731 -0.41731400415301323 -4.0316550098395965e-09 -3.903437573171686e-09 -1.4478018783847801e-09 -2.905540131032467 0.9651830233633518 -0.102901995414868 -4.0316550098395965e-09 -3.903437573171686e-09 -1.4478018783847801e-09 -10.27859978377819 0.7318009994924068 -0.025912300043273717 -4.0316550098395965e-09 -3.903437573171686e-09 -1.4478018783847801e-09 -2.221670038998127 -0.733487019315362 0.2089200052432716 0.0 0.0 0.0 -61.072102189064026 -54.76379871368408 -52.875298261642456 -2.007760014384985 69.90779757499695 2.5627199560403824 1.5976899862289429 -0.5067010084167123 10.581999868154526 0.0 0.0 0.0 16.531899869441986 8.138569816946983 1.320380000397563 -0.11147699668072164 33.70210111141205 -2.67278004437685 4.897200018167496 -12.999700158834457 30.10620027780533
-0.2850000065554923 55.17570114135742 -0.090999964508228 8.639800250530243 32.64620125293732 7.855899855494499 -14.352900087833405 12.892599552869797 2.270929981023073 4.68699999153614 -9.166230037808418 0.7082389667630196 -8.725429773330688 18.654799908399582 -12.462200224399567 10.793199688196182 -30.93789964914322 -22.117999792099 0.0 0.0 0.0 0.0 0.0 0.0 0.0 0.0 0.0 31.948700845241547 16.270199418067932 40.06129950284958 -13.640600591897964 -6.668080240488052 24.833800792694092 -0.42363299522548914 18.18660020828247 2.646350059658289 -2.327418258118996e-09 1.9312551557959523e-09 -2.7830537874251604e-09 -4.0597925021756964e-09 3.128377557004569e-09 -4.7833736971369945e-09 -2.327418258118996e-09 1.9312551557959523e-09 -2.7830537874251604e-09 7.7309102565050125 5.474880114197731 0.41731400415301323 -2.327418258118996e-09 1.9312551557959523e-09 -2.7830537874251604e-09 2.905540131032467 0.9651830233633518 0.102901995414868 -2.327418258118996e-09 1.9312551557959523e-09 -2.7830537874251604e-09 10.27859978377819 0.7318009994924068 0.025912300043273717 -2.327418258118996e-09 1.9312551557959523e-09 -2.7830537874251604e-09 2.221670038998127 -0.733487019315362 -0.2089200052432716 0.0 0.0 0.0 -112.27499485015869 50.96250236034393 50.949499011039734 28.02989959716797 -40.25409936904907 -84.37820255756378 3.576440066099167 -46.09019994735718 8.394830077886581 -2.0805757117159374e-09 -2.0514789866865613e-09 -7.776179700158536e-10 -3.568665363218315e-09 -3.396962711121887e-09 -1.4017587091075256e-09 -2.0805757117159374e-09 -2.0514789866865613e-09 -7.776179700158536e-10 -7.7309102565050125 5.474880114197731 -0.41731400415301323 -2.0805757117159374e-09 -2.0514789866865613e-09 -7.776179700158536e-10 -2.905540131032467 0.9651830233633518 -0.102901995414868 -2.0805757117159374e-09 -2.0514789866865613e-09 -7.776179700158536e-10 -10.27859978377819 0.7318009994924068 -0.025912300043273717 -2.0805757117159374e-09 -2.0514789866865613e-09 -7.776179700158536e-10 -2.221670038998127 -0.733487019315362 0.2089200052432716 0.0 0.0 0.0 -60.82950174808502 -55.09990096092224 -52.49969780445099 -1.985079925507307 69.74680066108704 2.537289932370186 1.577130015939474 -0.14980000094510615 9.994539767503738 0.0 0.0 0.0 17.085800170898438 6.03844977915287 1.0839199740439653 -0.0762220990145579 36.90370112657547 -2.7918300591409206 5.029990151524544 -13.215899616479874 29.971199333667755
